<svg width="21" height="20" viewBox="0 0 21 20" fill="none" xmlns="http://www.w3.org/2000/svg">
<path d="M9.9256 7.61905H11.9107V4.7619H14.8884V2.85714H11.9107V0H9.9256V2.85714H6.94792V4.7619H9.9256V7.61905ZM5.95536 16.1905C4.86354 16.1905 3.98016 17.0476 3.98016 18.0952C3.98016 19.1429 4.86354 20 5.95536 20C7.04717 20 7.94048 19.1429 7.94048 18.0952C7.94048 17.0476 7.04717 16.1905 5.95536 16.1905ZM15.881 16.1905C14.7891 16.1905 13.9058 17.0476 13.9058 18.0952C13.9058 19.1429 14.7891 20 15.881 20C16.9728 20 17.8661 19.1429 17.8661 18.0952C17.8661 17.0476 16.9728 16.1905 15.881 16.1905ZM7.04717 11.4286H14.4417C15.1862 11.4286 15.8413 11.0381 16.1787 10.4476L20.01 3.77143L18.2829 2.85714L14.4417 9.52381H7.47397L3.24567 0.952381H0V2.85714H1.98512L5.55833 10.0857L4.21838 12.4095C3.49381 13.6857 4.44667 15.2381 5.95536 15.2381H17.8661V13.3333H5.95536L7.04717 11.4286Z" fill="white"/>
</svg>
