<svg id="Capa_1" data-name="Capa 1" xmlns="http://www.w3.org/2000/svg" viewBox="0 0 136.06 136.06"><defs><style>.cls-1{fill:#e94e1b;}</style></defs><path class="cls-1" d="M103.6,108.07a8.71,8.71,0,1,0,8.71,8.71A8.7,8.7,0,0,0,103.6,108.07Zm-44.34,0A8.71,8.71,0,1,0,68,116.78,8.7,8.7,0,0,0,59.26,108.07Z"/><path class="cls-1" d="M37.18,39.81a19.54,19.54,0,0,0-7.43,9.25L21.14,19.62H8.23c-4.54-.26-7.38-5.15-6.47-9h27Z"/><path class="cls-1" d="M126.16,51.83H51.83a7.8,7.8,0,0,0-.23,15.6v-.05h54.27a16.92,16.92,0,0,1,.23,33.83H51.83c-5.66,0-9.27-6-8.15-10.82l8.15.08h53.46c3.94,0,7.13-2.27,7.13-6.2s-3.19-6.16-7.13-6.16H51.6a18.52,18.52,0,0,1,0-37h82.67C135.39,45.83,131.78,51.8,126.16,51.83Z"/><path class="cls-1" d="M51.94,42h0Z"/></svg>