<svg id="Capa_1" data-name="Capa 1" xmlns="http://www.w3.org/2000/svg" viewBox="0 0 679.68 259.2"><defs><style>.cls-1{font-size:72px;fill:#1d1d1b;font-family:Lato;font-weight:500;}.cls-2{fill:#e94e1b;}</style></defs><text class="cls-1" transform="translate(209.74 170.13)">Soscombos</text><path class="cls-2" d="M150.9,153.5a8.71,8.71,0,1,0,8.71,8.71A8.7,8.7,0,0,0,150.9,153.5Zm-44.34,0a8.71,8.71,0,1,0,8.71,8.71A8.69,8.69,0,0,0,106.56,153.5Z"/><path class="cls-2" d="M84.48,85.24a19.54,19.54,0,0,0-7.43,9.25L68.44,65.05H55.52c-4.53-.26-7.38-5.15-6.46-9H76Z"/><path class="cls-2" d="M173.46,97.26H99.13a7.8,7.8,0,0,0-.23,15.6v0h54.27a16.92,16.92,0,0,1,.22,33.83H99.13c-5.66,0-9.28-6-8.15-10.82l8.15.08h53.46c3.93,0,7.13-2.27,7.13-6.2s-3.2-6.16-7.13-6.16H98.9a18.52,18.52,0,0,1,0-37h82.66C182.69,91.26,179.08,97.23,173.46,97.26Z"/><path class="cls-2" d="M153.39,113.63h0Z"/><path class="cls-2" d="M99.24,87.44h0Z"/><path class="cls-2" d="M153.39,146.65h0Z"/><path class="cls-2" d="M153.17,112.81h0Z"/></svg>