<svg width="26" height="26" viewBox="0 0 26 26" fill="none" xmlns="http://www.w3.org/2000/svg">
<path d="M24.3925 17.8231C22.6473 17.8231 20.9587 17.5393 19.3837 17.0285C18.8871 16.8582 18.3337 16.9859 17.9506 17.369L15.7229 20.1643C11.7074 18.2487 7.94726 14.6305 5.94658 10.4731L8.71347 8.11765C9.09658 7.72035 9.21009 7.16697 9.05401 6.67035C8.52901 5.09535 8.25942 3.40684 8.25942 1.66157C8.25942 0.895349 7.6209 0.256836 6.85469 0.256836H1.94523C1.17901 0.256836 0.256714 0.597376 0.256714 1.66157C0.256714 14.8433 11.225 25.7974 24.3925 25.7974C25.4 25.7974 25.7973 24.9035 25.7973 24.1231V19.2278C25.7973 18.4616 25.1587 17.8231 24.3925 17.8231Z" fill="black"/>
</svg>
