<svg width="72" height="92" viewBox="0 0 72 92" fill="none" xmlns="http://www.w3.org/2000/svg">
<path d="M36.7083 0C21.3896 0 9 12.3896 9 27.7083C9 48.4896 36.7083 79.1667 36.7083 79.1667C36.7083 79.1667 64.4167 48.4896 64.4167 27.7083C64.4167 12.3896 52.0271 0 36.7083 0Z" fill="#E77F5C"/>
<path d="M36.7083 37.6042C42.1737 37.6042 46.6042 33.1737 46.6042 27.7083C46.6042 22.243 42.1737 17.8125 36.7083 17.8125C31.243 17.8125 26.8125 22.243 26.8125 27.7083C26.8125 33.1737 31.243 37.6042 36.7083 37.6042Z" fill="white"/>
<path d="M70 76.5C70 77.9671 69.3179 79.5298 67.7442 81.1317C66.1618 82.7425 63.7735 84.2848 60.6649 85.6232C54.4547 88.2971 45.7357 90 36 90C26.2643 90 17.5453 88.2971 11.3351 85.6232C8.22651 84.2848 5.83818 82.7425 4.25579 81.1317C2.68209 79.5298 2 77.9671 2 76.5C2 75.0329 2.68209 73.4702 4.25579 71.8683C5.83818 70.2575 8.22651 68.7152 11.3351 67.3768C17.5453 64.7029 26.2643 63 36 63C45.7357 63 54.4547 64.7029 60.6649 67.3768C63.7735 68.7152 66.1618 70.2575 67.7442 71.8683C69.3179 73.4702 70 75.0329 70 76.5Z" stroke="#E77F5C" stroke-width="4"/>
</svg>
